<svg version="1.1" xmlns="http://www.w3.org/2000/svg" viewBox="0 0 171.40625 147.3984375" width="171.40625" height="147.3984375">
  <!-- svg-source:excalidraw -->
  
  <defs>
    <style class="style-fonts">
      @font-face {
        font-family: "Virgil";
        src: url("https://excalidraw.com/Virgil.woff2");
      }
      @font-face {
        font-family: "Cascadia";
        src: url("https://excalidraw.com/Cascadia.woff2");
      }
    </style>
    
  </defs>
  <rect x="0" y="0" width="171.40625" height="147.3984375" fill="#ffffff"/><g stroke-linecap="round" transform="translate(10 10) rotate(0 75.703125 63.69921875)"><path d="M31.85 0 M31.85 0 C56.17 -1.14, 76.2 1.52, 119.56 0 M31.85 0 C61.24 1.06, 89.05 1.53, 119.56 0 M119.56 0 C139.94 1.19, 152.3 9.95, 151.41 31.85 M119.56 0 C141.23 1.15, 151.67 12.53, 151.41 31.85 M151.41 31.85 C150.75 56.08, 150.72 78.47, 151.41 95.55 M151.41 31.85 C152.6 50.07, 151.14 69.96, 151.41 95.55 M151.41 95.55 C151.71 116.97, 140.56 127.22, 119.56 127.4 M151.41 95.55 C150.74 118.25, 142.91 125.57, 119.56 127.4 M119.56 127.4 C89.54 128.64, 61.16 126.23, 31.85 127.4 M119.56 127.4 C87.23 128.16, 55.71 126.88, 31.85 127.4 M31.85 127.4 C8.89 126.49, -1.08 115.59, 0 95.55 M31.85 127.4 C11.29 128.57, 0.89 114.5, 0 95.55 M0 95.55 C-2.17 79.36, -1.95 65.91, 0 31.85 M0 95.55 C0.71 81.37, -0.34 66.29, 0 31.85 M0 31.85 C0.1 9.88, 10.02 1.19, 31.85 0 M0 31.85 C1.5 9.87, 9.62 -1.68, 31.85 0" stroke="#1e1e1e" stroke-width="1" fill="none"/></g></svg>